<svg width="24" height="16" viewBox="0 0 24 16" fill="none" xmlns="http://www.w3.org/2000/svg">
<path d="M10.4375 5.375C10.4375 6.39583 10.3229 7.51042 10.0938 8.71875C9.86458 9.90625 9.51042 11.0208 9.03125 12.0625C8.57292 13.0833 7.97917 13.9479 7.25 14.6562C6.54167 15.3438 5.70833 15.6875 4.75 15.6875C4.39583 15.6875 4.05208 15.5625 3.71875 15.3125C3.40625 15.0625 3.25 14.6667 3.25 14.125V13.875C3.27083 13.6667 3.33333 13.4583 3.4375 13.25C3.54167 13.0208 3.65625 12.8021 3.78125 12.5938C3.90625 12.3854 4.01042 12.1771 4.09375 11.9688C4.19792 11.7604 4.25 11.5417 4.25 11.3125C4.25 11.0833 4.14583 10.8958 3.9375 10.75C3.72917 10.6042 3.46875 10.4479 3.15625 10.2812C2.86458 10.1146 2.54167 9.92708 2.1875 9.71875C1.83333 9.48958 1.5 9.19792 1.1875 8.84375C0.895833 8.46875 0.645833 8.01042 0.4375 7.46875C0.229167 6.90625 0.125 6.20833 0.125 5.375C0.125 3.58333 0.572917 2.28125 1.46875 1.46875C2.36458 0.65625 3.64583 0.25 5.3125 0.25C7.04167 0.25 8.32292 0.65625 9.15625 1.46875C10.0104 2.28125 10.4375 3.58333 10.4375 5.375ZM23.5 5.375C23.5 6.39583 23.3854 7.51042 23.1562 8.71875C22.9271 9.90625 22.5729 11.0208 22.0938 12.0625C21.6354 13.0833 21.0417 13.9479 20.3125 14.6562C19.6042 15.3438 18.7708 15.6875 17.8125 15.6875C17.4583 15.6875 17.1146 15.5625 16.7812 15.3125C16.4688 15.0625 16.3125 14.6667 16.3125 14.125V13.875C16.3333 13.6667 16.3958 13.4583 16.5 13.25C16.6042 13.0208 16.7188 12.8021 16.8438 12.5938C16.9688 12.3854 17.0729 12.1771 17.1562 11.9688C17.2604 11.7604 17.3125 11.5417 17.3125 11.3125C17.3125 11.0833 17.2083 10.8958 17 10.75C16.7917 10.6042 16.5312 10.4479 16.2188 10.2812C15.9271 10.1146 15.6042 9.92708 15.25 9.71875C14.8958 9.48958 14.5625 9.19792 14.25 8.84375C13.9583 8.46875 13.7083 8.01042 13.5 7.46875C13.2917 6.90625 13.1875 6.20833 13.1875 5.375C13.1875 3.58333 13.6354 2.28125 14.5312 1.46875C15.4271 0.65625 16.7083 0.25 18.375 0.25C20.1042 0.25 21.3854 0.65625 22.2188 1.46875C23.0729 2.28125 23.5 3.58333 23.5 5.375Z" fill="#D9D9D9"/>
</svg>
